<?xml version="1.0" encoding="utf-8"?>
<!-- Generator: Adobe Illustrator 22.0.1, SVG Export Plug-In . SVG Version: 6.00 Build 0)  -->
<svg version="1.1" id="Layer_1" xmlns="http://www.w3.org/2000/svg" xmlns:xlink="http://www.w3.org/1999/xlink" x="0px" y="0px"
	 viewBox="0 0 662.3 389.6" style="enable-background:new 0 0 662.3 389.6;" xml:space="preserve">
<style type="text/css">
	.st0{fill:#1C60AA;}
	.st1{fill:#423748;}
</style>
<g id="surface1">
	<path class="st0" d="M264.4,50.4c19.8,0,35.9-9.1,36.1-20.1c0.1-10.6-14.8-19-33.5-19c-18.7,0-34.8,8.3-36,19
		C229.7,41.3,244.6,50.4,264.4,50.4"/>
	<path class="st0" d="M25.9,63.8c13.3,0,26.3-6.3,29-13.9c2.6-7.5-5.7-13.4-18.5-13.4c-12.9,0-25.7,5.9-28.8,13.4
		C4.3,57.5,12.5,63.8,25.9,63.8"/>
	<path class="st0" d="M209.7,17.7c9.1,0,16.9-4,17.5-8.9c0.6-4.9-6.1-8.7-14.9-8.7c-8.9,0-16.7,3.9-17.5,8.7
		C193.9,13.6,200.6,17.7,209.7,17.7"/>
	<path class="st0" d="M409.3,255.9c-2.1-19.9-25-35.3-51.6-35.3c-0.3,0-0.6,0.1-0.9,0.1c-51.3-0.1-55.7-3.4-55.4-38.6
		c0.2-16.9-19.4-30.1-43.9-30.1c-24.5,0-45.8,13.2-47.7,30.1c-2.1,17.6,17.4,32.3,43.7,32.3c51.9,0,56.3,3.1,56.3,41.6
		c0,41.8-4.9,45.6-61.9,45.6c-28.8,0-54.3,18.4-57,42.1c-2.9,24.9,20,45.9,51.5,45.9c31.5,0,57.1-21,57.3-45.9
		c0.5-45.5,5.3-49.5,60.8-49.5c0.3,0,0.7,0.1,1,0.1C390.2,294.3,411.5,276.9,409.3,255.9L409.3,255.9"/>
	<path class="st0" d="M206.8,139.1L206.8,139.1C206.8,139.1,206.8,139.1,206.8,139.1c1.9-15.4-15.3-27.3-38.6-27.3
		c-0.3,0-0.6,0.1-0.9,0.1c-45.1-0.1-48.4-2.6-41.7-30c3.1-13.2-11.8-23.6-33.5-23.6c-21.8,0-42.9,10.3-47.5,23.6
		c-4.8,13.7,9.9,25.2,33.1,25.2c45.7,0,49,2.4,42.1,31.9c-7.4,31.9-12.2,34.8-61.8,34.8c-25.1,0-50.2,13.9-56.4,31.7
		c-6.5,18.6,9.9,34.1,37,34.1c27,0,52.6-15.5,57.1-34.1c8.3-34.3,13.2-37.2,61.6-37.3c0.3,0,0.6,0,0.9,0
		C182.9,168.2,204.8,155,206.8,139.1"/>
	<path class="st0" d="M660.2,162.9c-8-19.2-37.1-34.1-65.5-34.1c-28.4,0-47,14.9-41.5,34.1c11.7,40.5,7.6,44.3-53,44.3
		c-0.3,0-0.6,0-0.9,0c-60.7,0-67-3.6-72.6-42.8c0-0.5,0-1-0.1-1.4c-1.6-12-12-22.3-26.5-28.4c-8.7-3.7-18.9-5.7-29.6-5.7
		c-0.3,0-0.5,0-0.8,0c-55.2,0-59.9-3.2-59.8-37l-0.1-0.1l0.1-0.1c0-31.3,4.3-33.8,55.4-33.8c25.9,0,45.1-12,43.2-26.3
		c-1.9-13.8-22.8-24.4-47-24.4c-24.1,0-43.4,10.7-43.3,24.4c0.3,28.8-4,31.4-55.5,31.4c-26.1,0-48.7,12.5-50.8,28.7
		c-0.1,0,0,0.1,0,0.1l-0.1,0.2c-2.1,16.8,18.8,31,46.9,31c55.3,0,60.4,3,60.8,39.3c0,0.2-0.1,0.5-0.1,0.7
		c0.1,11.4,8.2,21.7,20.7,28.6c9.7,5.4,22.1,8.6,35.7,8.6c0.6,0,1.1,0,1.7,0c59.2,0.1,64.9,4,71.6,48.4c0.2,1.5,0.6,3,1,4.6
		c6.5,22.5,35.4,40.8,67.5,40.8c34.2,0,56.1-20.7,49.3-45.2c0-0.1,0-0.1,0-0.1v0c-12.4-44.8-8.2-48.4,52.7-48.4
		C650.7,200,668.6,183.1,660.2,162.9"/>
	<path class="st0" d="M388.8,70.3c-20,0-35.6,9.7-34.9,22c0.7,12.8,18.4,23.4,39.6,23.4c21.2,0,36.7-10.6,34.7-23.4
		c-3.6-23.8-0.6-25.9,38-25.9c0.5,0,0.8,0.1,1.2,0.1c39.2-0.3,43.1,1.6,50,25.6c0,0,0.1,0.2,0.1,0.3c6.6,24.9,3.4,27.2-38.3,27.2
		c-21.3,0-36.7,11-34.4,25.1c2.3,14.5,22.6,26.6,45.3,26.6c22.7,0,37.8-12.1,34.1-26.6c-7-27.3-4.1-29.5,37.6-29.5
		c0.2,0,0.4,0,0.6,0c2.3,0,4.4-0.2,6.5-0.5c0.2,0,0.4,0,0.7,0c1.9-0.2,3.7-0.7,5.5-1.1c0.4-0.1,0.8-0.2,1.2-0.3
		c1.5-0.4,2.7-0.9,4-1.5c0.6-0.2,1.2-0.4,1.8-0.7c0.9-0.5,1.7-1.1,2.6-1.6c0.7-0.4,1.4-0.8,2-1.3c0.6-0.5,1-1,1.4-1.5
		c0.7-0.7,1.4-1.3,1.9-2.1c0.3-0.4,0.4-0.8,0.6-1.2c0.6-0.9,1.2-1.8,1.4-2.8c0.1-0.3,0.1-0.6,0.1-0.9c0.3-1.1,0.5-2.3,0.4-3.5
		c0-0.1-0.1-0.3-0.1-0.6c-0.1-1.3-0.3-2.5-0.8-3.8c0-0.1-0.1-0.2-0.2-0.3v0c-4.7-12.1-24.1-21.6-43.9-21.6c-0.2,0-0.4,0-0.5,0h0
		c-39.3,0.3-43.2-1.6-49.6-24.1c-1.8-6.3-8.4-11.7-17.3-15.1c-0.7-0.3-1.5-0.6-2.2-0.9c-0.4-0.2-1-0.3-1.5-0.5
		c-5.5-1.7-11.7-2.8-18.2-2.8c-18.9,0-32.6,8.5-30.9,19.5C431.2,68.3,428.2,70.3,388.8,70.3"/>
	<path class="st1" d="M-716.8,41.8c-14.6,0-26.5,4.7-35.5,14.1c-9,9.4-13.5,22.1-13.5,38.3c0,16.1,4.5,28.8,13.5,38.2
		c9,9.4,20.8,14.2,35.5,14.2c14.5,0,26.2-4.7,35.2-14.2c8.9-9.4,13.4-22.2,13.4-38.2c0-16.2-4.5-29-13.4-38.3
		S-702.3,41.8-716.8,41.8z M-716.8,12.9c23.9,0,43.6,7.4,58.9,22.3s23,34.5,23,59c0,24.5-7.7,44.2-23,59
		c-15.4,14.9-35,22.3-58.9,22.3c-24.1,0-43.8-7.4-59.2-22.3c-15.4-14.9-23-34.5-23-59c0-24.5,7.7-44.2,23-59S-740.9,12.9-716.8,12.9
		"/>
	<path class="st1" d="M-485,173.2h-27.7L-582,75.5v97.7h-32.7v-158h27.8l69.4,97.8V15.2h32.5V173.2"/>
	<path class="st1" d="M-412.6,116.2h43.1l-21.4-50.6L-412.6,116.2z M-310.1,173.2h-35.2l-12.9-30.4H-424l-13,30.4h-35.6l67.8-158
		h27.5L-310.1,173.2"/>
	<path class="st1" d="M-168.3,173.2h-32.5v-66.5h-64v66.5h-32.8v-158h32.8v62.5h64V15.2h32.5V173.2"/>
	<path class="st1" d="M-897.3,15.2v28.7h45.6v73.9c0,19.2-7.6,28.7-22.8,28.7c-6.9,0-12.3-2.6-16.3-7.7c-3.9-5.1-6.2-12.4-6.8-21.9
		l-32.7,5.3c1,16.8,6.4,29.8,16.3,39.2s23,14,39.3,14c17.3,0,30.9-5.2,40.8-15.5c9.9-10.4,14.8-24.8,14.8-43.2V15.2H-897.3"/>
	<path class="st1" d="M-728.2,299.3h31.1c6.5,0,11.7-1.9,15.7-5.7c4-3.8,6-9.1,6-15.8c0-7-2-12.5-6-16.3c-4-3.8-9.3-5.7-15.7-5.7
		h-31.1V299.3z M-670.8,385.1l-30.7-56.8H-728v56.8h-32.7V227h67.6c15.4,0,27.7,4.5,37,13.4s13.9,21.4,13.9,37.3
		c0,10.8-2.2,20.1-6.7,27.8c-4.4,7.7-10.7,13.5-18.7,17.4l33.6,62.1H-670.8"/>
	<path class="st1" d="M-543.4,253.7c-14.6,0-26.5,4.7-35.5,14c-9,9.4-13.5,22.2-13.5,38.3c0,16.1,4.5,28.8,13.5,38.2
		c9,9.4,20.8,14.2,35.5,14.2c14.5,0,26.2-4.7,35.2-14.2c8.9-9.4,13.4-22.2,13.4-38.2c0-16.2-4.5-29-13.4-38.3
		C-517.2,258.3-528.9,253.7-543.4,253.7z M-543.4,224.7c23.9,0,43.6,7.4,58.9,22.3c15.3,14.9,23,34.5,23,59s-7.7,44.2-23,59
		c-15.4,14.9-35,22.3-58.9,22.3c-24.1,0-43.8-7.4-59.2-22.3c-15.4-14.9-23-34.5-23-59s7.7-44.2,23-59
		C-587.2,232.2-567.5,224.7-543.4,224.7"/>
	<path class="st1" d="M-307,227v93.8c0,21-6,37.3-18,49c-12,11.7-28.4,17.5-49.2,17.5c-21,0-37.5-5.8-49.4-17.5
		c-12-11.7-18-28-18-49V227h32.5v93.4c0,12.4,3,21.8,8.9,28.3c5.9,6.5,14.6,9.7,26,9.7c11.3,0,19.9-3.2,25.8-9.7
		c5.9-6.5,8.9-15.9,8.9-28.3V227H-307"/>
	<path class="st1" d="M-247.9,255.8v44.2h31.7c6.5,0,11.8-1.9,15.8-5.7c4.1-3.8,6.1-9.2,6.1-16.3c0-7-2-12.5-6.1-16.4
		c-4.1-3.9-9.4-5.8-15.8-5.8H-247.9z M-280.4,227h68.5c15.4,0,27.7,4.5,37,13.5c9.3,9,13.9,21.5,13.9,37.4
		c0,15.9-4.7,28.4-13.9,37.4c-9.3,9-21.6,13.5-37,13.5h-35.7v56.2h-32.8V227"/>
	<path class="st1" d="M-935.7,306.1c0,24.5,7.7,44.2,23,59c15.3,14.9,35.1,22.3,59.2,22.3c23.9,0,43.6-7.4,58.9-22.3
		c2.8-2.7,5.2-5.6,7.5-8.6v-59.6h-65.4v28.4h33.9v19.2c-8.9,9.3-20.6,13.9-34.9,13.9c-14.6,0-26.5-4.7-35.5-14.2
		c-9-9.4-13.5-22.2-13.5-38.2c0-16.2,4.5-29,13.5-38.3c9-9.4,20.8-14,35.5-14c14.5,0,26.2,4.7,35.2,14c1.8,1.9,3.4,4,4.9,6.3
		l26.3-18.5c-2.3-3-4.7-5.8-7.4-8.5c-15.4-14.9-35-22.3-58.9-22.3c-24.1,0-43.8,7.4-59.2,22.3C-928.1,261.9-935.7,281.5-935.7,306.1
		"/>
</g>
</svg>
