<svg id="Layer_1" data-name="Layer 1" xmlns="http://www.w3.org/2000/svg" viewBox="0 0 512 512"><defs><style>.cls-1{fill:#0033a1;}.cls-2{fill:#ffcd00;}.cls-3{fill:#fff;}</style></defs><title>Artboard 1</title><g id="_Group_" data-name="&lt;Group&gt;"><path id="_Path_" data-name="&lt;Path&gt;" class="cls-1" d="M393.92,409.73c0,13.45-5.52,21.26-16.28,25.42-41.86,16.13-91.41,24.44-138.56,24.44s-96.71-8.31-138.56-24.44c-10.77-4.16-16.28-12-16.28-25.42V52.41H393.92V409.73"/><path id="_Path_2" data-name="&lt;Path&gt;" class="cls-2" d="M167.29,270.16c-42.87-26.78-57-38.63-58.24-56.19a42.21,42.21,0,0,1,2.09-13.88l-4-2.69a35.71,35.71,0,0,0-5.28,18.17,42.69,42.69,0,0,0,7.22,24c6,9.28,12.37,15.11,28,26.81,16.82,12.63,28.3,27.37,34.91,42.79h2.38v-17.5c22.75,12.9,42.78,25,52.64,46.74h2.38c-3.85-22.48-16.56-39.82-62-68.21"/><path id="_Compound_Path_" data-name="&lt;Compound Path&gt;" class="cls-2" d="M364.79,338.41h-2.9c0-16-14.68-20.37-30-20.37h-48a80.64,80.64,0,0,1,1.07,25.84h-2.39c-4.45-35.95-24.77-53.77-53.18-72.84V287.4H227c-7.55-16.88-24.14-32.74-39.85-44h0l-12.78-9.12v17.64h-2.39c-6.66-17.5-18.75-30.56-36-46.12-18.62-16.77-26.13-26.8-30.49-38.34-2.64-7-3.38-12.63-3.48-20.3-.17-13.73,6.76-26.13,15.41-30.76v6.64a33.65,33.65,0,0,0-6.52,20.17,45.24,45.24,0,0,0,4.94,20.62c10.49,20,45.8,44.47,68.23,59.51,69.75,46.79,83.66,55,95.24,79.78a60.56,60.56,0,0,1,3.65,10.8c10.07-1.55,46.63-7.11,53.37-8.18,1.29-.21,4-.55,5.37-.63a52.59,52.59,0,0,0,15.53-15.39l-26.72-2.06a84.84,84.84,0,0,1-4,7.7h-2.17c.73-2.72,1.36-5.4,1.91-8l-6.84-.52v-1.45l7.4-.92a132.92,132.92,0,0,0,2.24-21.4l-33.68-1.91c-.18,3.45-.21,6.71-.09,9.73h-2.17c-.71-3.37-1.27-6.71-1.71-10L284,260.5v-2.25l7-.37a152.28,152.28,0,0,1-.68-24.38l-19.7-.9a38.88,38.88,0,0,1,2.58,5.4c4.24,11.87,3.24,25.8,1.84,32.21h-2.39a72.68,72.68,0,0,0-5.2-22C262,235.33,249.82,224,229.33,210.82v16.41H227c-6.81-21.56-23.77-33.54-49-46.5-20.8-10.68-27.27-23.55-26.09-43.46l7,4.16c1.8,18.63,16.11,29.38,31.07,29.27a131.65,131.65,0,0,0,25.07-2.84c11.53-2.33,22.19-4.32,31.09-1.16v-11h-7c-2.5,2.16-7.58,4.67-15,4.79-8.22.15-23.75-4.58-23.75-21.93,0-15.07,12.76-17.48,23.14-17.48,5.56,0,14.8-.2,17.93-.38,2.32-.14,4.06-.49,5.19-1.61a6.41,6.41,0,0,0,1.81-3.89,42.26,42.26,0,0,0,.32-7v-11H200.65v19.06l-18.21-6.92v-4.57h8.72V97.18H158.69V81.34H147.62c-5.92,0-12.73,4.15-13.22,12.19-.45,7.7,3,14.19,10.94,14.19h1.43V117h-1.43C131.45,117,121,106.51,121,92.65c0-14.43,12.29-25.43,27.15-25.43H171.6V83.06h91.28v23.38c0,3.94-.21,9.24-.6,12.58a14.4,14.4,0,0,1-5.75,10.34c-2.77,2.12-7,3-13.77,3-2.23,0-8.7-.09-16.46-.58-10.4-.65-13.35,3.36-13.76,7.09a9.66,9.66,0,0,0,0,2.28c4.86-3.77,11.76-6.43,19.58-4,13.77,4.33,17.71,4.71,24.88-.92l.72,1.61a18,18,0,0,1-4.16,4.44h6.65v36.05L280.92,166H339s24.57,12.83,28.62,15c3.57,1.88,5,4.14,5.52,7.47a13.67,13.67,0,0,1-1.62,8.57c-.86,1.4-7.52,12.36-11.06,18.2a62.49,62.49,0,0,1-7.17,91.39,31.92,31.92,0,0,1,17.1,12.67l-5.64,19.2M235.18,144.27c-8.17-1.79-12.72-.78-17.4,3.69a16.53,16.53,0,0,0,8.34,1.47A12.47,12.47,0,0,0,235.18,144.27Zm-4.71,51.93,23-13.79A34.92,34.92,0,0,0,238,178.67c-7.93-.13-21.31,3.53-27.79,4.51C213.14,185.16,223.41,191.73,230.47,196.2Zm102.71,1.47,3.18-4.48-4.94-6.58.83-1.46,13.89,7.49-3,9.17a61.67,61.67,0,0,1,7,4.27l9-14.75-23.23-12.14H284.56l-41.67,25.07c7.84,5.43,15,11.31,20.15,17.23,11.15-16.25,30.78-26.62,50.2-26.62C319.59,194.87,327,195.55,333.18,197.67ZM329,255.88a121.14,121.14,0,0,0-2.51-20.73l-27.19-1.24a168,168,0,0,0-3.68,23.74Zm9.16-20.19a99.13,99.13,0,0,1,.52,19.68L365.62,254a52.37,52.37,0,0,0-5-17.23Zm-13.74-8.83a96.78,96.78,0,0,0-7.93-19.68c-1.13-.07-2.27-.1-3.42-.1a52.12,52.12,0,0,0-5.63.45,171.65,171.65,0,0,0-6.76,20.65Zm7.48-16.33a114.41,114.41,0,0,1,4.63,15.66l16.47-.91A53,53,0,0,0,331.89,210.53ZM362.2,280a44.08,44.08,0,0,0,3.51-14.88l-28-1.59a95.79,95.79,0,0,1-5.58,20.25Zm-69.08-68.43c-9.38,4.21-15.84,9.92-21.61,18.11l19.16-1A128.67,128.67,0,0,1,293.12,211.61Z"/><path id="_Compound_Path_2" data-name="&lt;Compound Path&gt;" class="cls-3" d="M257.56,379.79c7.81-1.28,15.27-7.36,15.27-16.54,0-8.28-3.52-17.37-27.89-17.37H203.79v.65a12.15,12.15,0,0,1,4.51,2.67c2.79,2.73,3.72,6.8,3.85,12.22V423h34.09c18.75,0,32.31-7.15,32.31-23.53,0-13.34-10.36-19-21-19.7M240,353.22c8.71,0,14.63,1.89,14.63,11.21,0,9.93-7.93,12.66-17,12.66h-7.79V353.22Zm.87,62.51h-11v-31.5h10.5c14.42,0,20,4.29,20,15.11C260.35,411,253.13,415.73,240.89,415.73Z"/><path id="_Compound_Path_3" data-name="&lt;Compound Path&gt;" class="cls-3" d="M173.45,423h22.21l-28.39-36.28c11.38-3,19.9-9.27,19.9-20.58,0-13.28-7.94-20.28-28.71-20.28H115.54v.65a13.09,13.09,0,0,1,4.51,2.72c3,3,3.9,7.49,3.9,13.6V423h17.82v-34.2h6.51L173.45,423m-31.68-69.8h12c10,0,15.21,2.92,15.21,13.54,0,9.48-6.82,15.09-17.76,15.09h-9.45Z"/><path id="_Path_3" data-name="&lt;Path&gt;" class="cls-3" d="M350.61,356.44a14.53,14.53,0,0,1,6.24,6.26c.23.27.75.19.75.19l3.88-13.21s-7-5-23.54-5c-25.08,0-43.84,12.63-43.84,40.28,0,31.15,22.35,39.24,42.07,39.24,18.35,0,25.55-5.84,25.55-5.84v-9s-6.48,6-20.38,6c-11.47,0-28.31-5.23-28.67-30.85-.35-23.64,10-31.36,23.78-31.36,7.7,0,11.54,1.8,14.16,3.28"/><path id="_Compound_Path_4" data-name="&lt;Compound Path&gt;" class="cls-1" d="M405.29,429.38a11.24,11.24,0,1,1,11.27,11.13,11.09,11.09,0,0,1-11.27-11.13m11.27,9.27a9.24,9.24,0,1,0-9-9.27A9,9,0,0,0,416.56,438.65Zm-2.35-2.83h-1.94V423h4.87c3,0,4.52,1.11,4.52,3.64,0,2.28-1.43,3.27-3.3,3.51l3.63,5.65h-2.18l-3.37-5.56h-2.23Zm2.32-7.19c1.64,0,3.1-.13,3.1-2.09,0-1.58-1.43-1.88-2.78-1.88h-2.64v4Z"/></g></svg>